<mxfile host="65bd71144e">
    <diagram id="TY2ji9zwoc-1wQC9up7U" name="Before Login">
        <mxGraphModel dx="1744" dy="1167" grid="1" gridSize="10" guides="1" tooltips="1" connect="1" arrows="1" fold="1" page="1" pageScale="1" pageWidth="827" pageHeight="1169" math="0" shadow="0">
            <root>
                <mxCell id="0"/>
                <mxCell id="1" parent="0"/>
                <mxCell id="2" value="" style="rounded=0;whiteSpace=wrap;html=1;" parent="1" vertex="1">
                    <mxGeometry x="100" y="160" width="200" height="520" as="geometry"/>
                </mxCell>
                <mxCell id="3" value="" style="rounded=0;whiteSpace=wrap;html=1;" parent="1" vertex="1">
                    <mxGeometry x="40" y="160" width="60" height="520" as="geometry"/>
                </mxCell>
                <mxCell id="4" value="" style="rounded=0;whiteSpace=wrap;html=1;" parent="1" vertex="1">
                    <mxGeometry x="300" y="540" width="510" height="140" as="geometry"/>
                </mxCell>
                <mxCell id="6" value="" style="rounded=0;whiteSpace=wrap;html=1;" parent="1" vertex="1">
                    <mxGeometry x="300" y="160" width="510" height="380" as="geometry"/>
                </mxCell>
                <mxCell id="7" value="" style="rounded=0;whiteSpace=wrap;html=1;" parent="1" vertex="1">
                    <mxGeometry x="40" y="130" width="770" height="30" as="geometry"/>
                </mxCell>
                <mxCell id="8" value="" style="rounded=0;whiteSpace=wrap;html=1;" parent="1" vertex="1">
                    <mxGeometry x="40" y="680" width="770" height="30" as="geometry"/>
                </mxCell>
                <mxCell id="9" value="" style="rounded=0;whiteSpace=wrap;html=1;strokeColor=default;" parent="1" vertex="1">
                    <mxGeometry x="300" y="160" width="90" height="30" as="geometry"/>
                </mxCell>
                <mxCell id="12" value="" style="rounded=0;whiteSpace=wrap;html=1;" parent="1" vertex="1">
                    <mxGeometry x="390" y="160" width="90" height="30" as="geometry"/>
                </mxCell>
                <mxCell id="13" value="" style="rounded=0;whiteSpace=wrap;html=1;" parent="1" vertex="1">
                    <mxGeometry x="480" y="160" width="90" height="30" as="geometry"/>
                </mxCell>
                <mxCell id="14" value="" style="rounded=0;whiteSpace=wrap;html=1;" parent="1" vertex="1">
                    <mxGeometry x="570" y="160" width="240" height="30" as="geometry"/>
                </mxCell>
                <mxCell id="15" value="" style="ellipse;whiteSpace=wrap;html=1;aspect=fixed;strokeColor=default;" parent="1" vertex="1">
                    <mxGeometry x="50" y="170" width="40" height="40" as="geometry"/>
                </mxCell>
                <mxCell id="16" value="" style="ellipse;whiteSpace=wrap;html=1;aspect=fixed;strokeColor=default;" parent="1" vertex="1">
                    <mxGeometry x="50" y="230" width="40" height="40" as="geometry"/>
                </mxCell>
                <mxCell id="17" value="" style="ellipse;whiteSpace=wrap;html=1;aspect=fixed;strokeColor=default;" parent="1" vertex="1">
                    <mxGeometry x="50" y="290" width="40" height="40" as="geometry"/>
                </mxCell>
                <mxCell id="18" value="" style="ellipse;whiteSpace=wrap;html=1;aspect=fixed;strokeColor=default;" parent="1" vertex="1">
                    <mxGeometry x="50" y="350" width="40" height="40" as="geometry"/>
                </mxCell>
                <mxCell id="19" value="&amp;nbsp; â–³&amp;nbsp; Home" style="rounded=0;whiteSpace=wrap;html=1;strokeColor=default;align=left;" parent="1" vertex="1">
                    <mxGeometry x="100" y="160" width="200" height="30" as="geometry"/>
                </mxCell>
                <mxCell id="20" value="" style="rounded=0;whiteSpace=wrap;html=1;strokeColor=default;" parent="1" vertex="1">
                    <mxGeometry x="100" y="190" width="200" height="490" as="geometry"/>
                </mxCell>
                <mxCell id="22" value="Login" style="rounded=0;whiteSpace=wrap;html=1;strokeColor=#006EAF;fillColor=#1ba1e2;fontColor=#ffffff;" parent="1" vertex="1">
                    <mxGeometry x="127.5" y="260" width="145" height="30" as="geometry"/>
                </mxCell>
                <mxCell id="7uzm0SndYFBvBvAtwjh_-22" value="To use LeetUp, please login with your leetcode account." style="text;html=1;strokeColor=none;fillColor=none;align=center;verticalAlign=middle;whiteSpace=wrap;rounded=0;" parent="1" vertex="1">
                    <mxGeometry x="120" y="207" width="160" height="40" as="geometry"/>
                </mxCell>
                <mxCell id="ERdGHyG0HeLvpKYZL31H-22" value="" style="rounded=0;whiteSpace=wrap;html=1;strokeColor=default;" parent="1" vertex="1">
                    <mxGeometry x="320" y="130" width="290" height="160" as="geometry"/>
                </mxCell>
                <mxCell id="ERdGHyG0HeLvpKYZL31H-23" value="&lt;span style=&quot;white-space: pre&quot;&gt;&#9;&lt;/span&gt;|" style="rounded=0;whiteSpace=wrap;html=1;strokeColor=default;align=left;" parent="1" vertex="1">
                    <mxGeometry x="320" y="130" width="290" height="40" as="geometry"/>
                </mxCell>
                <mxCell id="ERdGHyG0HeLvpKYZL31H-24" value="&lt;span style=&quot;white-space: pre&quot;&gt;&#9;&lt;/span&gt;SignIn with LeetCode account" style="rounded=0;whiteSpace=wrap;html=1;strokeColor=default;align=left;" parent="1" vertex="1">
                    <mxGeometry x="320" y="170" width="290" height="30" as="geometry"/>
                </mxCell>
                <mxCell id="ERdGHyG0HeLvpKYZL31H-25" value="&lt;span style=&quot;white-space: pre&quot;&gt;&#9;&lt;/span&gt;SignIn with Linkedin account" style="rounded=0;whiteSpace=wrap;html=1;strokeColor=default;align=left;" parent="1" vertex="1">
                    <mxGeometry x="320" y="200" width="290" height="30" as="geometry"/>
                </mxCell>
                <mxCell id="ERdGHyG0HeLvpKYZL31H-26" value="&lt;span style=&quot;white-space: pre&quot;&gt;&#9;&lt;/span&gt;SignIn with Github account" style="rounded=0;whiteSpace=wrap;html=1;strokeColor=default;align=left;" parent="1" vertex="1">
                    <mxGeometry x="320" y="230" width="290" height="30" as="geometry"/>
                </mxCell>
                <mxCell id="ERdGHyG0HeLvpKYZL31H-27" value="&lt;span style=&quot;white-space: pre&quot;&gt;&#9;&lt;/span&gt;SignIn with Cookie" style="rounded=0;whiteSpace=wrap;html=1;strokeColor=default;align=left;" parent="1" vertex="1">
                    <mxGeometry x="320" y="260" width="290" height="30" as="geometry"/>
                </mxCell>
            </root>
        </mxGraphModel>
    </diagram>
    <diagram name="After Login" id="uFW-QHKj9lrslyT1C-xP">
        <mxGraphModel dx="2571" dy="1167" grid="1" gridSize="10" guides="1" tooltips="1" connect="1" arrows="1" fold="1" page="1" pageScale="1" pageWidth="827" pageHeight="1169" math="0" shadow="0">
            <root>
                <mxCell id="6rF_11yRFb2CChP4Dicz-0"/>
                <mxCell id="6rF_11yRFb2CChP4Dicz-1" parent="6rF_11yRFb2CChP4Dicz-0"/>
                <mxCell id="6rF_11yRFb2CChP4Dicz-2" value="" style="rounded=0;whiteSpace=wrap;html=1;" parent="6rF_11yRFb2CChP4Dicz-1" vertex="1">
                    <mxGeometry x="100" y="160" width="200" height="520" as="geometry"/>
                </mxCell>
                <mxCell id="6rF_11yRFb2CChP4Dicz-3" value="" style="rounded=0;whiteSpace=wrap;html=1;" parent="6rF_11yRFb2CChP4Dicz-1" vertex="1">
                    <mxGeometry x="40" y="160" width="60" height="520" as="geometry"/>
                </mxCell>
                <mxCell id="6rF_11yRFb2CChP4Dicz-4" value="" style="rounded=0;whiteSpace=wrap;html=1;" parent="6rF_11yRFb2CChP4Dicz-1" vertex="1">
                    <mxGeometry x="300" y="540" width="940" height="140" as="geometry"/>
                </mxCell>
                <mxCell id="6rF_11yRFb2CChP4Dicz-5" value="" style="rounded=0;whiteSpace=wrap;html=1;" parent="6rF_11yRFb2CChP4Dicz-1" vertex="1">
                    <mxGeometry x="300" y="160" width="940" height="380" as="geometry"/>
                </mxCell>
                <mxCell id="6rF_11yRFb2CChP4Dicz-6" value="" style="rounded=0;whiteSpace=wrap;html=1;" parent="6rF_11yRFb2CChP4Dicz-1" vertex="1">
                    <mxGeometry x="40" y="130" width="1200" height="30" as="geometry"/>
                </mxCell>
                <mxCell id="6rF_11yRFb2CChP4Dicz-7" value="" style="rounded=0;whiteSpace=wrap;html=1;" parent="6rF_11yRFb2CChP4Dicz-1" vertex="1">
                    <mxGeometry x="40" y="680" width="1200" height="30" as="geometry"/>
                </mxCell>
                <mxCell id="6rF_11yRFb2CChP4Dicz-8" value="&lt;span&gt;P823_Queue&lt;/span&gt;" style="rounded=0;whiteSpace=wrap;html=1;strokeColor=default;" parent="6rF_11yRFb2CChP4Dicz-1" vertex="1">
                    <mxGeometry x="300" y="160" width="90" height="30" as="geometry"/>
                </mxCell>
                <mxCell id="6rF_11yRFb2CChP4Dicz-9" value="" style="rounded=0;whiteSpace=wrap;html=1;" parent="6rF_11yRFb2CChP4Dicz-1" vertex="1">
                    <mxGeometry x="390" y="160" width="90" height="30" as="geometry"/>
                </mxCell>
                <mxCell id="6rF_11yRFb2CChP4Dicz-10" value="" style="rounded=0;whiteSpace=wrap;html=1;" parent="6rF_11yRFb2CChP4Dicz-1" vertex="1">
                    <mxGeometry x="480" y="160" width="90" height="30" as="geometry"/>
                </mxCell>
                <mxCell id="6rF_11yRFb2CChP4Dicz-11" value="" style="rounded=0;whiteSpace=wrap;html=1;" parent="6rF_11yRFb2CChP4Dicz-1" vertex="1">
                    <mxGeometry x="570" y="160" width="670" height="30" as="geometry"/>
                </mxCell>
                <mxCell id="6rF_11yRFb2CChP4Dicz-12" value="" style="ellipse;whiteSpace=wrap;html=1;aspect=fixed;strokeColor=default;" parent="6rF_11yRFb2CChP4Dicz-1" vertex="1">
                    <mxGeometry x="50" y="170" width="40" height="40" as="geometry"/>
                </mxCell>
                <mxCell id="6rF_11yRFb2CChP4Dicz-13" value="" style="ellipse;whiteSpace=wrap;html=1;aspect=fixed;strokeColor=default;" parent="6rF_11yRFb2CChP4Dicz-1" vertex="1">
                    <mxGeometry x="50" y="230" width="40" height="40" as="geometry"/>
                </mxCell>
                <mxCell id="6rF_11yRFb2CChP4Dicz-14" value="" style="ellipse;whiteSpace=wrap;html=1;aspect=fixed;strokeColor=default;" parent="6rF_11yRFb2CChP4Dicz-1" vertex="1">
                    <mxGeometry x="50" y="290" width="40" height="40" as="geometry"/>
                </mxCell>
                <mxCell id="6rF_11yRFb2CChP4Dicz-15" value="" style="ellipse;whiteSpace=wrap;html=1;aspect=fixed;strokeColor=default;" parent="6rF_11yRFb2CChP4Dicz-1" vertex="1">
                    <mxGeometry x="50" y="350" width="40" height="40" as="geometry"/>
                </mxCell>
                <mxCell id="6rF_11yRFb2CChP4Dicz-16" value="&amp;nbsp; â–³&amp;nbsp; Home" style="rounded=0;whiteSpace=wrap;html=1;strokeColor=default;align=left;" parent="6rF_11yRFb2CChP4Dicz-1" vertex="1">
                    <mxGeometry x="100" y="160" width="200" height="30" as="geometry"/>
                </mxCell>
                <mxCell id="6rF_11yRFb2CChP4Dicz-17" value="" style="rounded=0;whiteSpace=wrap;html=1;strokeColor=default;" parent="6rF_11yRFb2CChP4Dicz-1" vertex="1">
                    <mxGeometry x="100" y="190" width="200" height="490" as="geometry"/>
                </mxCell>
                <mxCell id="6rF_11yRFb2CChP4Dicz-18" value="&lt;span&gt;&amp;nbsp; &amp;nbsp; &amp;nbsp; &amp;nbsp;&lt;/span&gt;â–³&amp;nbsp;&amp;nbsp;&lt;span&gt;Daily Challenge&lt;/span&gt;" style="rounded=0;whiteSpace=wrap;html=1;strokeColor=default;align=left;" parent="6rF_11yRFb2CChP4Dicz-1" vertex="1">
                    <mxGeometry x="100" y="220" width="200" height="30" as="geometry"/>
                </mxCell>
                <mxCell id="xJPRtiqNaAZXW4HC7p8x-0" value="" style="whiteSpace=wrap;html=1;aspect=fixed;strokeColor=default;" parent="6rF_11yRFb2CChP4Dicz-1" vertex="1">
                    <mxGeometry x="240" y="250" width="20" height="20" as="geometry"/>
                </mxCell>
                <mxCell id="xJPRtiqNaAZXW4HC7p8x-1" value="" style="whiteSpace=wrap;html=1;aspect=fixed;strokeColor=default;" parent="6rF_11yRFb2CChP4Dicz-1" vertex="1">
                    <mxGeometry x="260" y="250" width="20" height="20" as="geometry"/>
                </mxCell>
                <mxCell id="xJPRtiqNaAZXW4HC7p8x-2" value="" style="whiteSpace=wrap;html=1;aspect=fixed;strokeColor=default;" parent="6rF_11yRFb2CChP4Dicz-1" vertex="1">
                    <mxGeometry x="280" y="250" width="20" height="20" as="geometry"/>
                </mxCell>
                <mxCell id="xJPRtiqNaAZXW4HC7p8x-3" value="" style="curved=1;endArrow=classic;html=1;entryX=0.255;entryY=0.609;entryDx=0;entryDy=0;entryPerimeter=0;" parent="6rF_11yRFb2CChP4Dicz-1" target="JKEadK9gaQrLtFto8l6H-4" edge="1">
                    <mxGeometry width="50" height="50" relative="1" as="geometry">
                        <mxPoint x="290" y="260" as="sourcePoint"/>
                        <mxPoint x="503.03999999999996" y="159.94000000000005" as="targetPoint"/>
                        <Array as="points">
                            <mxPoint x="360" y="370"/>
                        </Array>
                    </mxGeometry>
                </mxCell>
                <mxCell id="xJPRtiqNaAZXW4HC7p8x-4" value="Difficulty Filter" style="text;html=1;strokeColor=none;fillColor=none;align=center;verticalAlign=middle;whiteSpace=wrap;rounded=0;" parent="6rF_11yRFb2CChP4Dicz-1" vertex="1">
                    <mxGeometry x="430" y="330" width="120" height="30" as="geometry"/>
                </mxCell>
                <mxCell id="xJPRtiqNaAZXW4HC7p8x-5" value="&amp;nbsp; &amp;nbsp; &amp;nbsp;P153. Dynamic Heap" style="rounded=0;whiteSpace=wrap;html=1;strokeColor=default;align=left;" parent="6rF_11yRFb2CChP4Dicz-1" vertex="1">
                    <mxGeometry x="100" y="270" width="200" height="30" as="geometry"/>
                </mxCell>
                <mxCell id="xJPRtiqNaAZXW4HC7p8x-6" value="&amp;nbsp; &amp;nbsp; &amp;nbsp;P50. Binary Search Tree" style="rounded=0;whiteSpace=wrap;html=1;strokeColor=default;align=left;" parent="6rF_11yRFb2CChP4Dicz-1" vertex="1">
                    <mxGeometry x="100" y="300" width="200" height="30" as="geometry"/>
                </mxCell>
                <mxCell id="xJPRtiqNaAZXW4HC7p8x-7" value="&amp;nbsp; &amp;nbsp; &amp;nbsp;P823. Queue" style="rounded=0;whiteSpace=wrap;html=1;strokeColor=default;align=left;" parent="6rF_11yRFb2CChP4Dicz-1" vertex="1">
                    <mxGeometry x="100" y="330" width="200" height="30" as="geometry"/>
                </mxCell>
                <mxCell id="xJPRtiqNaAZXW4HC7p8x-8" value="" style="whiteSpace=wrap;html=1;aspect=fixed;strokeColor=default;" parent="6rF_11yRFb2CChP4Dicz-1" vertex="1">
                    <mxGeometry x="100" y="250" width="20" height="20" as="geometry"/>
                </mxCell>
                <mxCell id="xJPRtiqNaAZXW4HC7p8x-9" value="" style="curved=1;endArrow=classic;html=1;" parent="6rF_11yRFb2CChP4Dicz-1" edge="1">
                    <mxGeometry width="50" height="50" relative="1" as="geometry">
                        <mxPoint x="110" y="260" as="sourcePoint"/>
                        <mxPoint x="-60" y="210" as="targetPoint"/>
                        <Array as="points">
                            <mxPoint x="-20" y="280"/>
                            <mxPoint x="-20" y="200"/>
                        </Array>
                    </mxGeometry>
                </mxCell>
                <mxCell id="xJPRtiqNaAZXW4HC7p8x-10" value="Refresh" style="text;html=1;strokeColor=none;fillColor=none;align=center;verticalAlign=middle;whiteSpace=wrap;rounded=0;" parent="6rF_11yRFb2CChP4Dicz-1" vertex="1">
                    <mxGeometry x="-150" y="200" width="120" height="30" as="geometry"/>
                </mxCell>
                <mxCell id="JKEadK9gaQrLtFto8l6H-1" value="" style="curved=1;endArrow=classic;html=1;exitX=1.025;exitY=0.133;exitDx=0;exitDy=0;exitPerimeter=0;" parent="6rF_11yRFb2CChP4Dicz-1" edge="1">
                    <mxGeometry width="50" height="50" relative="1" as="geometry">
                        <mxPoint x="112" y="347.98" as="sourcePoint"/>
                        <mxPoint x="-60" y="300" as="targetPoint"/>
                        <Array as="points">
                            <mxPoint x="-20" y="370"/>
                            <mxPoint x="-20" y="290"/>
                        </Array>
                    </mxGeometry>
                </mxCell>
                <mxCell id="JKEadK9gaQrLtFto8l6H-2" value="Open the web page" style="text;html=1;strokeColor=none;fillColor=none;align=center;verticalAlign=middle;whiteSpace=wrap;rounded=0;" parent="6rF_11yRFb2CChP4Dicz-1" vertex="1">
                    <mxGeometry x="-170" y="295" width="120" height="30" as="geometry"/>
                </mxCell>
                <mxCell id="JKEadK9gaQrLtFto8l6H-4" value="// prefix (A number of problem which is parsed by extension)&lt;br&gt;&lt;br&gt;Write your code here" style="text;html=1;strokeColor=none;fillColor=none;align=left;verticalAlign=top;whiteSpace=wrap;rounded=0;" parent="6rF_11yRFb2CChP4Dicz-1" vertex="1">
                    <mxGeometry x="320" y="210" width="470" height="230" as="geometry"/>
                </mxCell>
                <mxCell id="JKEadK9gaQrLtFto8l6H-5" value="Submit or Test Result will be displayed here" style="text;html=1;strokeColor=none;fillColor=none;align=left;verticalAlign=top;whiteSpace=wrap;rounded=0;" parent="6rF_11yRFb2CChP4Dicz-1" vertex="1">
                    <mxGeometry x="310" y="550" width="490" height="120" as="geometry"/>
                </mxCell>
                <mxCell id="52PHdi-8WmmEpKOvOrVt-0" value="" style="rounded=0;whiteSpace=wrap;html=1;" parent="6rF_11yRFb2CChP4Dicz-1" vertex="1">
                    <mxGeometry x="770" y="190" width="470" height="350" as="geometry"/>
                </mxCell>
                <mxCell id="52PHdi-8WmmEpKOvOrVt-1" value="Profile" style="rounded=0;whiteSpace=wrap;html=1;strokeColor=default;" parent="6rF_11yRFb2CChP4Dicz-1" vertex="1">
                    <mxGeometry x="770" y="160" width="90" height="30" as="geometry"/>
                </mxCell>
                <mxCell id="52PHdi-8WmmEpKOvOrVt-2" value="Hi, GwangrokBaek!" style="text;html=1;strokeColor=none;fillColor=none;align=center;verticalAlign=middle;whiteSpace=wrap;rounded=0;" parent="6rF_11yRFb2CChP4Dicz-1" vertex="1">
                    <mxGeometry x="780" y="200" width="120" height="30" as="geometry"/>
                </mxCell>
                <mxCell id="52PHdi-8WmmEpKOvOrVt-4" value="Logout" style="rounded=0;whiteSpace=wrap;html=1;strokeColor=#006EAF;fillColor=#1ba1e2;fontColor=#ffffff;" parent="6rF_11yRFb2CChP4Dicz-1" vertex="1">
                    <mxGeometry x="932.5" y="490" width="145" height="30" as="geometry"/>
                </mxCell>
                <mxCell id="52PHdi-8WmmEpKOvOrVt-7" value="&amp;nbsp; &amp;nbsp; &amp;nbsp; &amp;nbsp;Profile" style="rounded=0;whiteSpace=wrap;html=1;strokeColor=default;align=left;" parent="6rF_11yRFb2CChP4Dicz-1" vertex="1">
                    <mxGeometry x="100" y="190" width="200" height="30" as="geometry"/>
                </mxCell>
                <mxCell id="TlE2b9tbewYygagQCHZN-1" value="" style="curved=1;endArrow=classic;html=1;entryX=0.222;entryY=0.333;entryDx=0;entryDy=0;entryPerimeter=0;exitX=0.85;exitY=0.333;exitDx=0;exitDy=0;exitPerimeter=0;" parent="6rF_11yRFb2CChP4Dicz-1" source="52PHdi-8WmmEpKOvOrVt-7" target="52PHdi-8WmmEpKOvOrVt-1" edge="1">
                    <mxGeometry width="50" height="50" relative="1" as="geometry">
                        <mxPoint x="320" y="30" as="sourcePoint"/>
                        <mxPoint x="469.8499999999999" y="120.06999999999994" as="targetPoint"/>
                        <Array as="points">
                            <mxPoint x="390" y="-20"/>
                        </Array>
                    </mxGeometry>
                </mxCell>
                <mxCell id="c7A4KgdMLonuvRmawmUl-0" value="Statistics &amp;amp; Tier" style="rounded=0;whiteSpace=wrap;html=1;" parent="6rF_11yRFb2CChP4Dicz-1" vertex="1">
                    <mxGeometry x="800" y="240" width="410" height="100" as="geometry"/>
                </mxCell>
                <mxCell id="4EIzPuybFNHrhlVwENss-0" value="&lt;span&gt;&amp;nbsp; &amp;nbsp; &amp;nbsp; &amp;nbsp;&lt;/span&gt;â–³&amp;nbsp; Problems" style="rounded=0;whiteSpace=wrap;html=1;strokeColor=default;align=left;" parent="6rF_11yRFb2CChP4Dicz-1" vertex="1">
                    <mxGeometry x="100" y="360" width="200" height="30" as="geometry"/>
                </mxCell>
                <mxCell id="4EIzPuybFNHrhlVwENss-3" value="Description" style="rounded=0;whiteSpace=wrap;html=1;strokeColor=default;" parent="6rF_11yRFb2CChP4Dicz-1" vertex="1">
                    <mxGeometry x="860" y="160" width="90" height="30" as="geometry"/>
                </mxCell>
                <mxCell id="4EIzPuybFNHrhlVwENss-5" value="" style="curved=1;endArrow=classic;html=1;entryX=0.556;entryY=0.333;entryDx=0;entryDy=0;entryPerimeter=0;exitX=0.85;exitY=0.333;exitDx=0;exitDy=0;exitPerimeter=0;" parent="6rF_11yRFb2CChP4Dicz-1" target="4EIzPuybFNHrhlVwENss-3" edge="1">
                    <mxGeometry width="50" height="50" relative="1" as="geometry">
                        <mxPoint x="175.01" y="285" as="sourcePoint"/>
                        <mxPoint x="694.99" y="255" as="targetPoint"/>
                        <Array as="points">
                            <mxPoint x="230"/>
                            <mxPoint x="820" y="70"/>
                        </Array>
                    </mxGeometry>
                </mxCell>
                <mxCell id="4EIzPuybFNHrhlVwENss-6" value="Submit&amp;nbsp; |&amp;nbsp; Test&amp;nbsp; |&amp;nbsp; Solution" style="text;html=1;strokeColor=none;fillColor=none;align=left;verticalAlign=middle;whiteSpace=wrap;rounded=0;" parent="6rF_11yRFb2CChP4Dicz-1" vertex="1">
                    <mxGeometry x="320" y="430" width="340" height="30" as="geometry"/>
                </mxCell>
                <mxCell id="4EIzPuybFNHrhlVwENss-7" value="Solution" style="rounded=0;whiteSpace=wrap;html=1;strokeColor=default;" parent="6rF_11yRFb2CChP4Dicz-1" vertex="1">
                    <mxGeometry x="950" y="160" width="90" height="30" as="geometry"/>
                </mxCell>
                <mxCell id="4EIzPuybFNHrhlVwENss-8" value="" style="curved=1;endArrow=classic;html=1;entryX=0.556;entryY=0.667;entryDx=0;entryDy=0;entryPerimeter=0;exitX=0.412;exitY=0.5;exitDx=0;exitDy=0;exitPerimeter=0;" parent="6rF_11yRFb2CChP4Dicz-1" source="4EIzPuybFNHrhlVwENss-6" target="4EIzPuybFNHrhlVwENss-7" edge="1">
                    <mxGeometry width="50" height="50" relative="1" as="geometry">
                        <mxPoint x="500" y="499.99" as="sourcePoint"/>
                        <mxPoint x="1019.98" y="469.99" as="targetPoint"/>
                        <Array as="points">
                            <mxPoint x="730" y="410"/>
                        </Array>
                    </mxGeometry>
                </mxCell>
                <mxCell id="4EIzPuybFNHrhlVwENss-9" value="" style="curved=1;endArrow=classic;html=1;entryX=0.204;entryY=0.417;entryDx=0;entryDy=0;entryPerimeter=0;" parent="6rF_11yRFb2CChP4Dicz-1" target="JKEadK9gaQrLtFto8l6H-5" edge="1">
                    <mxGeometry width="50" height="50" relative="1" as="geometry">
                        <mxPoint x="340" y="460" as="sourcePoint"/>
                        <mxPoint x="489.8499999999999" y="550.0699999999999" as="targetPoint"/>
                        <Array as="points">
                            <mxPoint x="410" y="570"/>
                        </Array>
                    </mxGeometry>
                </mxCell>
                <mxCell id="4EIzPuybFNHrhlVwENss-10" value="" style="curved=1;endArrow=classic;html=1;entryX=0.204;entryY=0.417;entryDx=0;entryDy=0;entryPerimeter=0;" parent="6rF_11yRFb2CChP4Dicz-1" edge="1">
                    <mxGeometry width="50" height="50" relative="1" as="geometry">
                        <mxPoint x="390" y="460" as="sourcePoint"/>
                        <mxPoint x="459.96000000000004" y="600.04" as="targetPoint"/>
                        <Array as="points">
                            <mxPoint x="460" y="570"/>
                        </Array>
                    </mxGeometry>
                </mxCell>
                <mxCell id="WNSIjebBaSE8bmrSoS5N-0" value="" style="whiteSpace=wrap;html=1;aspect=fixed;strokeColor=default;" parent="6rF_11yRFb2CChP4Dicz-1" vertex="1">
                    <mxGeometry x="240" y="390" width="20" height="20" as="geometry"/>
                </mxCell>
                <mxCell id="WNSIjebBaSE8bmrSoS5N-1" value="" style="whiteSpace=wrap;html=1;aspect=fixed;strokeColor=default;" parent="6rF_11yRFb2CChP4Dicz-1" vertex="1">
                    <mxGeometry x="280" y="390" width="20" height="20" as="geometry"/>
                </mxCell>
                <mxCell id="WNSIjebBaSE8bmrSoS5N-2" value="" style="whiteSpace=wrap;html=1;aspect=fixed;strokeColor=default;" parent="6rF_11yRFb2CChP4Dicz-1" vertex="1">
                    <mxGeometry x="100" y="390" width="20" height="20" as="geometry"/>
                </mxCell>
                <mxCell id="WNSIjebBaSE8bmrSoS5N-3" value="" style="whiteSpace=wrap;html=1;aspect=fixed;strokeColor=default;" parent="6rF_11yRFb2CChP4Dicz-1" vertex="1">
                    <mxGeometry x="260" y="390" width="20" height="20" as="geometry"/>
                </mxCell>
                <mxCell id="WNSIjebBaSE8bmrSoS5N-4" value="&amp;nbsp; &amp;nbsp; &amp;nbsp;âœ…&amp;nbsp; P153. Dynamic Heap" style="rounded=0;whiteSpace=wrap;html=1;strokeColor=default;align=left;" parent="6rF_11yRFb2CChP4Dicz-1" vertex="1">
                    <mxGeometry x="100" y="410" width="200" height="30" as="geometry"/>
                </mxCell>
                <mxCell id="WNSIjebBaSE8bmrSoS5N-5" value="&amp;nbsp; &amp;nbsp; &amp;nbsp;âœ…&amp;nbsp;&amp;nbsp;P153. Dynamic Heap" style="rounded=0;whiteSpace=wrap;html=1;strokeColor=default;align=left;" parent="6rF_11yRFb2CChP4Dicz-1" vertex="1">
                    <mxGeometry x="100" y="440" width="200" height="30" as="geometry"/>
                </mxCell>
                <mxCell id="WNSIjebBaSE8bmrSoS5N-6" value="&amp;nbsp; &amp;nbsp; &amp;nbsp;P153. Dynamic Heap" style="rounded=0;whiteSpace=wrap;html=1;strokeColor=default;align=left;" parent="6rF_11yRFb2CChP4Dicz-1" vertex="1">
                    <mxGeometry x="100" y="470" width="200" height="30" as="geometry"/>
                </mxCell>
                <mxCell id="WNSIjebBaSE8bmrSoS5N-7" value="Missions" style="rounded=0;whiteSpace=wrap;html=1;" parent="6rF_11yRFb2CChP4Dicz-1" vertex="1">
                    <mxGeometry x="800" y="370" width="410" height="100" as="geometry"/>
                </mxCell>
            </root>
        </mxGraphModel>
    </diagram>
</mxfile>